<?xml version="1.0" encoding="UTF-8"?>
<svg id="Capa_1" data-name="Capa 1" xmlns="http://www.w3.org/2000/svg" viewBox="0 0 535.33 76.62">
  <path d="M270.56,1.22c.38,1.73-2.06,1.51-3.28,2.21-1.57.9-4.81,3.03-4.81,5.01v26.01c0,.18-.73.44-.58.87h32.38c-.33-6.74.43-13.85.02-20.54-.1-1.68-.39-5.34-.72-6.79-.73-3.26-4.44-4.05-6.65-5.47-.57-.37-1.03.07-.75-1.3h27.75c.26,1.52-.21.9-.83,1.21-2.55,1.29-5.29,1.93-6.97,4.58l-.3,59.24c.35,4.89,4.34,7.19,8.09,9.25.08.17-1.36.86-1.44.86h-26.02l-.59-1.16c2.28-1.64,7.05-3.83,7.69-6.76.34-1.54.62-5.56.72-7.37.37-6.54-.32-13.39-.02-19.97h-31.8v25.72c0,2.98,5.65,7.5,8.39,8.38l-.59,1.16h-26.59c-.09,0-1.69-.57-1.44-1.15,6.36-1.58,8.18-5.64,8.66-11.86,1.07-13.81,1-36.43.03-50.31-.33-4.73-.25-6.93-4.46-9.41-1.34-.79-3.98-.7-3.65-2.42h27.75Z"/>
  <path d="M93.94,1.22c24.29,2.73,23.57,35.75.87,39.59,5.9,8.24,11.05,19.23,17.92,26.59,1.98,2.12,4.95,3.71,7.06,5.5.43.36,2.38,2.14,2.18,2.59-1.09,1.32-3.33.98-4.9.86-11.39-.82-20.41-11.48-26.32-20.5-1.56-2.38-6.33-12.27-7.53-13.28-1.83-1.55-5.23-.67-7.5-.89.24,8.19-.53,16.9.73,25,.75,4.78,4.02,6.79,7.94,8.82.08.17-1.36.86-1.44.86h-24.86c-.14,0-2.77-.57-2.6-1.15,6.36-1.58,8.18-5.64,8.66-11.86,1.08-13.87,1.1-37.6.03-51.46-.34-4.35-.68-6.03-4.46-8.26-1.34-.79-3.98-.7-3.65-2.42h37.87ZM75.73,7.87v30.35h11.85c1.21,0,5.35-2.55,6.36-3.46,8.16-7.35,7.6-26.08-3.64-29.32-3.53-1.02-13.79-2.26-14.58,2.44Z"/>
  <path d="M175.41,9.65c12.07,12.17,13.73,31.18,6.34,46.42-20.42,42.15-77.06,13.34-61.53-31.46,8.19-23.63,36.81-33.49,55.18-14.96ZM146.69,4.25c-1.07.17-3.28.99-4.29,1.49-21.88,10.79-13.5,69.65,13.92,66.51,28.1-3.22,21.1-72.83-9.63-68.01Z"/>
  <path d="M368.26,1.22v15.61c-1.06.21-1.14-.28-1.6-1-2.6-4.14-2.3-8.71-8.34-10.16-2.34-.56-17.97-.83-19.54-.1-.27.13-1.16,1.05-1.16,1.15v28.61h18.21c.63,0,2.92-2.22,3.42-2.94l3.81-6.31v23.12c-1.79.27-1.86-2.69-2.67-3.98-1.05-1.69-3.62-4.69-5.72-4.69h-17.05v27.46c0,4.88,6.06,3.19,8.94,3.15,5.92-.07,14.94.57,18.82-4.88,1.37-1.93,2.09-5.85,3.2-7.21.65-.81,1.06-.65,2-.6-1.68,5.65,1.75,12.48-.87,17.92h-51.45c-.11,0-1.03-.93-.87-1.15,5.53-2.13,8.12-4.42,8.66-10.71,1.2-13.98.94-37.3.04-51.47-.29-4.64-.32-6.92-4.46-9.42-1.33-.81-3.99-.66-3.67-2.41h50.3Z"/>
  <path d="M37.29,1.22c19.17,2.03,23.98,23.62,9.92,35.64-1.88,1.61-9.36,4.82-11.65,4.82h-12.43v-2.31c12.82.19,20.93-7.26,19.65-20.52S31.43,3.42,20.23,5.85v60.41c0,.77,1.11,3.87,1.72,4.64.2.25,3.11,3.07,3.31,3.19,1.29.77,3.48-.16,3.07,1.7H0s3.04-1.74,3.04-1.74c2.56-2.44,4.43-2.58,5-6.68,1.9-13.75,1.51-38.94.65-53.15-.5-8.34-.29-8.25-7.29-11.77-.62-.31-1.08.31-.82-1.21h36.71Z"/>
  <path d="M224.02,1.22c14.07,1.58,21.91,14.84,15.83,27.96-2.5,5.39-11.53,12.5-17.56,12.5h-12.43v-2.31c12.21.18,20.7-7.11,19.58-19.88-1.15-13.1-10.83-16.72-22.5-13.27-.1,3.62.2,7.29.05,10.91-.65,15.52-1.55,33.06-.02,48.53.15,1.47.63,3.68,1.45,4.9.18.27,3.08,3.1,3.35,3.29.19.13,5.95,2.51,2.42,2.51h-25.44c-.12,0-2.25-.54-2.02-1.15,2.94-.83,7.53-4.07,8.06-7.26.41-2.49.51-8.05.63-10.93.66-16.37-.02-33.55-1.04-49.88-1.6-3.3-5.45-3.43-7.66-5.93h37.29Z"/>
  <path d="M501.74.72c4.63,12.45,8.89,25.08,13.69,37.47,3.41,8.82,6.98,19.24,11.15,27.59,2.17,4.36,4.53,7.28,8.76,9.73-1.93,1.99-4.92.31-7.19.27-6.67-.14-13.41,1.57-19.97.02,1.51-2.04,7.16-4.14,7.39-6.73l-6.91-16.87-25.37.17c-.76.5-5.33,15.68-5.23,17.37.16,2.52,4.34,4.65,6.4,5.77.05.8-3.13.83-3.71.87-5.17.29-10.44-.2-15.59-.09l-.65-1.07,5.8-4.61c10.62-22.24,18.55-45.81,27.89-68.65.56-1.51,2.11-1.55,3.53-1.23ZM485.63,47.47h20.81l-10.69-28.33-10.12,28.33Z"/>
  <path d="M432.44,1.22v12.43c0,.38-.86,1.42-.6,2.18l-1.43.43c-1.62-2.28-3.71-6.34-5.77-8.12-.87-.75-5.44-2.88-6.37-2.88h-9.83l-.87.87v60.12c0,3.46,5.3,7.94,8.39,8.96l-.59,1.16h-26.02c-.08,0-1.52-.7-1.44-.86,3.61-1.92,8-4.53,8.08-9.26.08-20.02,1.32-40.02-.07-60.03-.47-1.43-6.25-1.08-7.75-.97-7.17.51-8.56,3.52-12.97,8.42-1.25,1.39-1.34,3.68-3.48,3.17V1.22h60.7Z"/>
  <path d="M463.08,1.22c.28,1.36-.18.93-.75,1.3-3.15,2.03-6.62,1.76-7.3,6.56.84,17.92-1.29,37.12-.08,54.89.13,1.84.4,4.67,1.25,6.26.77,1.45,5.11,4.41,6.86,4.42v1.72s-26.3,0-26.3,0c-.11,0-1.71-.62-2.02-.86,5.39-2.95,8.09-4.33,8.66-10.99,1.48-17.2-1.1-36.36.03-53.77-.35-4.2-1.01-4.98-4.46-7.1-1.33-.82-3.98-.67-3.66-2.42h27.75Z"/>
</svg>